<?xml version="1.0" standalone="no"?>
<!DOCTYPE svg PUBLIC "-//W3C//DTD SVG 20010904//EN"
 "http://www.w3.org/TR/2001/REC-SVG-20010904/DTD/svg10.dtd">
<svg version="1.0" xmlns="http://www.w3.org/2000/svg"
 width="32.000000pt" height="32.000000pt" viewBox="0 0 32.000000 32.000000"
 preserveAspectRatio="xMidYMid meet">

<g transform="translate(0.000000,32.000000) scale(0.100000,-0.100000)"
fill="#000000" stroke="none">
<path d="M237 306 c-20 -8 -52 -25 -70 -39 -18 -14 -51 -30 -74 -36 -22 -6
-48 -20 -57 -30 -17 -18 -17 -19 2 -25 25 -8 130 -113 138 -138 6 -19 7 -19
25 -2 10 9 24 35 30 57 6 23 22 56 36 74 28 36 52 96 53 131 0 26 -24 29 -83
8z m18 -76 c0 -18 -6 -26 -23 -28 -13 -2 -25 3 -28 12 -10 26 4 48 28 44 17
-2 23 -10 23 -28z"/>
<path d="M38 93 c-16 -18 -41 -84 -35 -90 6 -6 72 19 89 35 23 19 23 35 0 55
-24 22 -35 21 -54 0z"/>
</g>
</svg>
